<svg width="24" height="96" viewBox="0 0 24 96" xmlns="http://www.w3.org/2000/svg"><path d="M12 77.988c-3.312 0-6 2.682-6 5.987s2.688 5.988 6 5.988 6-2.683 6-5.988c0-3.305-2.688-5.987-6-5.987zM12 72C5.376 72 0 77.365 0 83.975c0 6.61 5.376 11.976 12 11.976s12-5.364 12-11.975C24 77.365 18.624 72 12 72zm0 21.556c-5.304 0-9.6-4.288-9.6-9.58 0-5.294 4.296-9.58 9.6-9.58 5.304 0 9.6 4.286 9.6 9.58 0 5.292-4.296 9.58-9.6 9.58z" fill="#54C3AC"/><path d="M12 48C5.376 48 0 53.365 0 59.975c0 6.61 5.376 11.976 12 11.976s12-5.364 12-11.975C24 53.365 18.624 48 12 48zm0 21.556c-5.304 0-9.6-4.288-9.6-9.58 0-5.294 4.296-9.58 9.6-9.58 5.304 0 9.6 4.286 9.6 9.58 0 5.292-4.296 9.58-9.6 9.58z" fill="#54C3AC"/><path d="M21.333 24H2.667C1.187 24 0 25.2 0 26.667v18.666C0 46.8 1.187 48 2.667 48h18.666C22.813 48 24 46.8 24 45.333V26.667C24 25.2 22.813 24 21.333 24zm-12 18.667L2.667 36l1.88-1.88 4.786 4.773 10.12-10.12 1.88 1.894-12 12z" fill="#54C3AC"/><path d="M21.333 2.667v18.666H2.667V2.667h18.666zm0-2.667H2.667C1.2 0 0 1.2 0 2.667v18.666C0 22.8 1.2 24 2.667 24h18.666C22.8 24 24 22.8 24 21.333V2.667C24 1.2 22.8 0 21.333 0z" fill="#54C3AC"/></svg>